<svg width="138" height="152" viewBox="0 0 138 152" fill="none" xmlns="http://www.w3.org/2000/svg">
<path d="M0 24C0 10.7452 10.7452 0 24 0H114C127.255 0 138 10.7452 138 24V128C138 141.255 127.255 152 114 152H24C10.7452 152 0 141.255 0 128V24Z" fill="#02799D"/>
<path d="M51.5263 93.3333C50.9123 93.3333 50.375 93.1 49.9145 92.6333C49.4539 92.1667 49.2237 91.6222 49.2237 91C49.2237 90.3778 49.4539 89.8333 49.9145 89.3667C50.375 88.9 50.9123 88.6667 51.5263 88.6667C52.1404 88.6667 52.6776 88.9 53.1382 89.3667C53.5987 89.8333 53.8289 90.3778 53.8289 91C53.8289 91.6222 53.5987 92.1667 53.1382 92.6333C52.6776 93.1 52.1404 93.3333 51.5263 93.3333ZM83.1053 93.3333C82.4912 93.3333 81.9539 93.1 81.4934 92.6333C81.0329 92.1667 80.8026 91.6222 80.8026 91C80.8026 90.3778 81.0329 89.8333 81.4934 89.3667C81.9539 88.9 82.4912 88.6667 83.1053 88.6667C83.7193 88.6667 84.2566 88.9 84.7171 89.3667C85.1776 89.8333 85.4079 90.3778 85.4079 91C85.4079 91.6222 85.1776 92.1667 84.7171 92.6333C84.2566 93.1 83.7193 93.3333 83.1053 93.3333ZM59.4211 104C58.807 104 58.2697 103.767 57.8092 103.3C57.3487 102.833 57.1184 102.289 57.1184 101.667C57.1184 101.044 57.3487 100.5 57.8092 100.033C58.2697 99.5667 58.807 99.3333 59.4211 99.3333C60.0351 99.3333 60.5724 99.5667 61.0329 100.033C61.4934 100.5 61.7237 101.044 61.7237 101.667C61.7237 102.289 61.4934 102.833 61.0329 103.3C60.5724 103.767 60.0351 104 59.4211 104ZM67.3158 93.3333C66.7018 93.3333 66.1645 93.1 65.7039 92.6333C65.2434 92.1667 65.0132 91.6222 65.0132 91C65.0132 90.3778 65.2434 89.8333 65.7039 89.3667C66.1645 88.9 66.7018 88.6667 67.3158 88.6667C67.9298 88.6667 68.4671 88.9 68.9276 89.3667C69.3882 89.8333 69.6184 90.3778 69.6184 91C69.6184 91.6222 69.3882 92.1667 68.9276 92.6333C68.4671 93.1 67.9298 93.3333 67.3158 93.3333ZM75.2105 104C74.5965 104 74.0592 103.767 73.5987 103.3C73.1382 102.833 72.9079 102.289 72.9079 101.667C72.9079 101.044 73.1382 100.5 73.5987 100.033C74.0592 99.5667 74.5965 99.3333 75.2105 99.3333C75.8246 99.3333 76.3618 99.5667 76.8224 100.033C77.2829 100.5 77.5132 101.044 77.5132 101.667C77.5132 102.289 77.2829 102.833 76.8224 103.3C76.3618 103.767 75.8246 104 75.2105 104ZM54.8158 84C51 84 47.7434 82.6333 45.0461 79.9C42.3487 77.1667 41 73.8667 41 70C41 66.4889 42.239 63.3556 44.7171 60.6C47.1952 57.8444 50.2763 56.3333 53.9605 56.0667C55.364 53.5778 57.2171 51.6111 59.5197 50.1667C61.8224 48.7222 64.4211 48 67.3158 48C71.307 48 74.6513 49.2778 77.3487 51.8333C80.0461 54.3889 81.7018 57.5556 82.3158 61.3333C85.7807 61.5111 88.5329 62.7 90.5724 64.9C92.6118 67.1 93.6316 69.6889 93.6316 72.6667C93.6316 75.7778 92.5461 78.4444 90.375 80.6667C88.2039 82.8889 85.5614 84 82.4474 84H54.8158ZM54.8158 80H82.4474C84.4649 80 86.1754 79.2778 87.5789 77.8333C88.9825 76.3889 89.6842 74.6444 89.6842 72.6C89.6842 70.6 88.9825 68.8889 87.5789 67.4667C86.1754 66.0444 84.4649 65.3333 82.4474 65.3333H78.5V63.3333C78.5 60.1778 77.4145 57.5 75.2434 55.3C73.0724 53.1 70.4298 52 67.3158 52C65.0789 52 63.0285 52.6111 61.1645 53.8333C59.3004 55.0556 57.9298 56.7111 57.0526 58.8L56.5263 60H54.6842C51.9649 60.0889 49.6623 61.1 47.7763 63.0333C45.8904 64.9667 44.9474 67.2889 44.9474 70C44.9474 72.7556 45.9123 75.1111 47.8421 77.0667C49.7719 79.0222 52.0965 80 54.8158 80Z" fill="#FFFFFF"/>
</svg>
